<?xml version="1.0" encoding="UTF-8" standalone="no" ?>
<!DOCTYPE svg PUBLIC "-//W3C//DTD SVG 1.1//EN" "http://www.w3.org/Graphics/SVG/1.1/DTD/svg11.dtd">
<svg xmlns="http://www.w3.org/2000/svg" xmlns:xlink="http://www.w3.org/1999/xlink" version="1.1" width="123" height="205" viewBox="0 0 123 205" xml:space="preserve">
<g transform="matrix(1 0 0 1 61.56 102.43)" id="z5-4yv1LU_5QDXsIMvD7x"  >
<g style="" vector-effect="non-scaling-stroke"   >
		<g transform="matrix(1 0 0 1 1.04 -79.81)" id="5rlAADUkYHXZkYfd_K5N0"  >
<path style="stroke: none; stroke-width: 1; stroke-dasharray: none; stroke-linecap: butt; stroke-dashoffset: 0; stroke-linejoin: miter; stroke-miterlimit: 4; fill: rgb(0,0,0); fill-rule: nonzero; opacity: 1;" vector-effect="non-scaling-stroke"  transform=" translate(-21.96, -21.96)" d="M 0 21.956 C 0 9.83004 9.83004 0 21.956 0 C 34.081959999999995 0 43.912 9.83004 43.912 21.956 C 43.912 34.081959999999995 34.081959999999995 43.912 21.956 43.912 C 9.83004 43.912 0 34.081959999999995 0 21.956 z" stroke-linecap="round" />
</g>
		<g transform="matrix(1 0 0 1 0 24.59)" id="RCoOqNUK6x1UAq-Kmo7Vx"  >
<path style="stroke: none; stroke-width: 1; stroke-dasharray: none; stroke-linecap: butt; stroke-dashoffset: 0; stroke-linejoin: miter; stroke-miterlimit: 4; fill: rgb(0,0,0); fill-rule: nonzero; opacity: 1;" vector-effect="non-scaling-stroke"  transform=" translate(-225.51, -141.49)" d="M 248.899 209.9 L 254.156 172.679 C 254.334 171.428 254.275 170.153 253.985 168.922 L 248.175 144.24099999999999 L 248.815 132.154 L 243.124 130.813 C 239.768 130.022 236.668 129.702 234.456 126.10399999999998 L 215.367 94.83699999999999 L 240.939 119.33599999999998 C 242.147 120.49399999999999 243.644 121.30699999999999 245.273 121.69099999999999 L 274.742 128.636 C 279.79200000000003 129.82399999999998 284.829 126.692 286.01500000000004 121.664 C 287.20200000000006 116.626 284.081 111.57900000000001 279.04300000000006 110.391 L 252.06200000000007 104.03200000000001 L 228.33400000000006 81.30000000000001 L 248.81400000000005 92.62900000000002 L 248.81400000000005 83.67300000000002 C 248.81400000000005 76.89600000000002 243.32000000000005 71.40200000000002 236.54300000000006 71.40200000000002 L 206.94500000000005 71.40200000000002 C 202.53700000000006 66.95400000000001 197.05800000000005 64.31700000000002 191.11900000000006 64.31700000000002 C 176.55300000000005 64.31700000000002 164.74500000000006 80.17400000000002 164.74500000000006 99.73600000000002 C 164.74500000000006 119.29700000000003 176.55300000000005 135.15500000000003 191.11900000000006 135.15500000000003 C 195.37500000000006 135.15500000000003 199.80700000000004 133.75900000000004 203.86400000000006 130.74600000000004 L 203.86400000000006 137.10000000000005 L 201.34300000000007 164.23700000000005 L 177.67700000000008 189.82000000000005 C 173.8580000000001 193.94800000000004 174.1080000000001 200.39100000000005 178.23700000000008 204.21100000000004 C 182.3640000000001 208.03000000000003 188.80700000000007 207.78000000000003 192.62800000000007 203.65100000000004 L 218.63900000000007 175.53300000000004 C 220.16000000000005 173.89000000000004 221.09700000000007 171.78900000000004 221.30300000000005 169.55900000000005 L 223.65500000000006 144.24300000000005 L 227.25100000000006 144.24300000000005 L 231.32700000000006 161.55700000000004 L 233.72100000000006 171.72800000000004 L 228.73200000000006 207.05500000000004 C 227.94500000000005 212.62400000000002 231.82200000000006 217.77500000000003 237.39100000000005 218.56200000000004 C 242.956 219.347 248.112 215.472 248.899 209.9 z" stroke-linecap="round" />
</g>
</g>
</g>
</svg>
